<mxfile host="www.draw.io" modified="2023-05-11T13:42:08.732Z" agent="Mozilla/5.0 (Macintosh; Intel Mac OS X 10_15_7) AppleWebKit/537.36 (KHTML, like Gecko) Chrome/113.0.0.0 Safari/537.36" etag="_U7TpVZHGp6Cupi0BnaG" version="21.2.9" type="device" pages="2">
  <diagram name="13-ROS2_Action" id="uGH-T6Q4dADv3YnaaLBU">
    <mxGraphModel dx="873" dy="579" grid="1" gridSize="10" guides="1" tooltips="1" connect="1" arrows="1" fold="1" page="1" pageScale="1" pageWidth="1100" pageHeight="850" math="0" shadow="0">
      <root>
        <mxCell id="0" />
        <mxCell id="1" parent="0" />
        <mxCell id="9SYbQLJaygHpxM5evOQE-1" value="" style="ellipse;whiteSpace=wrap;html=1;aspect=fixed;" vertex="1" parent="1">
          <mxGeometry x="40" y="80" width="360" height="360" as="geometry" />
        </mxCell>
        <mxCell id="9SYbQLJaygHpxM5evOQE-2" value="" style="ellipse;whiteSpace=wrap;html=1;aspect=fixed;" vertex="1" parent="1">
          <mxGeometry x="720" y="80" width="360" height="360" as="geometry" />
        </mxCell>
        <mxCell id="9SYbQLJaygHpxM5evOQE-3" value="Action&lt;br style=&quot;font-size: 18px;&quot;&gt;Client" style="rounded=1;whiteSpace=wrap;html=1;arcSize=8;align=left;labelPosition=center;verticalLabelPosition=middle;verticalAlign=middle;spacingLeft=10;fontSize=18;" vertex="1" parent="1">
          <mxGeometry x="100" y="150" width="250" height="220" as="geometry" />
        </mxCell>
        <mxCell id="9SYbQLJaygHpxM5evOQE-4" value="Service Client" style="rounded=1;whiteSpace=wrap;html=1;fontStyle=1;fontSize=17;" vertex="1" parent="1">
          <mxGeometry x="180" y="160" width="160" height="40" as="geometry" />
        </mxCell>
        <mxCell id="9SYbQLJaygHpxM5evOQE-6" value="Service Client" style="rounded=1;whiteSpace=wrap;html=1;fontStyle=1;fontSize=17;" vertex="1" parent="1">
          <mxGeometry x="180" y="200" width="160" height="40" as="geometry" />
        </mxCell>
        <mxCell id="9SYbQLJaygHpxM5evOQE-7" value="Subscriber" style="rounded=1;whiteSpace=wrap;html=1;fontStyle=1;fontSize=17;" vertex="1" parent="1">
          <mxGeometry x="180" y="240" width="160" height="40" as="geometry" />
        </mxCell>
        <mxCell id="9SYbQLJaygHpxM5evOQE-8" value="Subscriber" style="rounded=1;whiteSpace=wrap;html=1;fontStyle=1;fontSize=17;" vertex="1" parent="1">
          <mxGeometry x="180" y="280" width="160" height="40" as="geometry" />
        </mxCell>
        <mxCell id="9SYbQLJaygHpxM5evOQE-9" value="Service Client" style="rounded=1;whiteSpace=wrap;html=1;fontStyle=1;fontSize=17;" vertex="1" parent="1">
          <mxGeometry x="180" y="320" width="160" height="40" as="geometry" />
        </mxCell>
        <mxCell id="9SYbQLJaygHpxM5evOQE-10" value="Action&lt;br&gt;Server" style="rounded=1;whiteSpace=wrap;html=1;arcSize=8;align=right;labelPosition=center;verticalLabelPosition=middle;verticalAlign=middle;spacingLeft=-1;fontSize=18;spacingRight=10;" vertex="1" parent="1">
          <mxGeometry x="770" y="150" width="250" height="220" as="geometry" />
        </mxCell>
        <mxCell id="9SYbQLJaygHpxM5evOQE-11" value="Service Server" style="rounded=1;whiteSpace=wrap;html=1;fontStyle=1;fontSize=17;" vertex="1" parent="1">
          <mxGeometry x="780" y="160" width="160" height="40" as="geometry" />
        </mxCell>
        <mxCell id="9SYbQLJaygHpxM5evOQE-13" value="Publisher" style="rounded=1;whiteSpace=wrap;html=1;fontStyle=1;fontSize=17;" vertex="1" parent="1">
          <mxGeometry x="780" y="240" width="160" height="40" as="geometry" />
        </mxCell>
        <mxCell id="9SYbQLJaygHpxM5evOQE-16" value="Service Server" style="rounded=1;whiteSpace=wrap;html=1;fontStyle=1;fontSize=17;" vertex="1" parent="1">
          <mxGeometry x="780" y="200" width="160" height="40" as="geometry" />
        </mxCell>
        <mxCell id="9SYbQLJaygHpxM5evOQE-17" value="Service Server" style="rounded=1;whiteSpace=wrap;html=1;fontStyle=1;fontSize=17;" vertex="1" parent="1">
          <mxGeometry x="780" y="320" width="160" height="40" as="geometry" />
        </mxCell>
        <mxCell id="9SYbQLJaygHpxM5evOQE-18" value="Publisher" style="rounded=1;whiteSpace=wrap;html=1;fontStyle=1;fontSize=17;" vertex="1" parent="1">
          <mxGeometry x="780" y="280" width="160" height="40" as="geometry" />
        </mxCell>
        <mxCell id="9SYbQLJaygHpxM5evOQE-19" value="" style="endArrow=classic;html=1;rounded=0;strokeColor=#000000;strokeWidth=2;" edge="1" parent="1">
          <mxGeometry width="50" height="50" relative="1" as="geometry">
            <mxPoint x="420" y="120" as="sourcePoint" />
            <mxPoint x="700" y="120" as="targetPoint" />
          </mxGeometry>
        </mxCell>
        <mxCell id="9SYbQLJaygHpxM5evOQE-20" value="" style="endArrow=classic;html=1;rounded=0;strokeColor=#000000;strokeWidth=2;" edge="1" parent="1">
          <mxGeometry width="50" height="50" relative="1" as="geometry">
            <mxPoint x="700" y="130" as="sourcePoint" />
            <mxPoint x="420" y="130" as="targetPoint" />
          </mxGeometry>
        </mxCell>
        <mxCell id="9SYbQLJaygHpxM5evOQE-21" value="Action Goal&lt;br style=&quot;font-size: 14px;&quot;&gt;(send_goal Service)" style="text;html=1;strokeColor=none;fillColor=none;align=center;verticalAlign=middle;whiteSpace=wrap;rounded=0;fontSize=14;" vertex="1" parent="1">
          <mxGeometry x="480" y="80" width="140" height="30" as="geometry" />
        </mxCell>
        <mxCell id="9SYbQLJaygHpxM5evOQE-22" value="Service Request" style="text;html=1;strokeColor=none;fillColor=none;align=center;verticalAlign=middle;whiteSpace=wrap;rounded=0;fontSize=10;" vertex="1" parent="1">
          <mxGeometry x="620" y="95" width="80" height="20" as="geometry" />
        </mxCell>
        <mxCell id="9SYbQLJaygHpxM5evOQE-23" value="Service Response" style="text;html=1;strokeColor=none;fillColor=none;align=center;verticalAlign=middle;whiteSpace=wrap;rounded=0;fontSize=10;" vertex="1" parent="1">
          <mxGeometry x="420" y="130" width="90" height="20" as="geometry" />
        </mxCell>
        <mxCell id="9SYbQLJaygHpxM5evOQE-24" value="" style="endArrow=classic;html=1;rounded=0;strokeColor=#000000;strokeWidth=2;" edge="1" parent="1">
          <mxGeometry width="50" height="50" relative="1" as="geometry">
            <mxPoint x="420" y="200" as="sourcePoint" />
            <mxPoint x="700" y="200" as="targetPoint" />
          </mxGeometry>
        </mxCell>
        <mxCell id="9SYbQLJaygHpxM5evOQE-25" value="" style="endArrow=classic;html=1;rounded=0;strokeColor=#000000;strokeWidth=2;" edge="1" parent="1">
          <mxGeometry width="50" height="50" relative="1" as="geometry">
            <mxPoint x="700" y="210" as="sourcePoint" />
            <mxPoint x="420" y="210" as="targetPoint" />
          </mxGeometry>
        </mxCell>
        <mxCell id="9SYbQLJaygHpxM5evOQE-26" value="Action CancelGoal&lt;br style=&quot;font-size: 14px;&quot;&gt;(cancel_goal Service)" style="text;html=1;strokeColor=none;fillColor=none;align=center;verticalAlign=middle;whiteSpace=wrap;rounded=0;fontSize=14;" vertex="1" parent="1">
          <mxGeometry x="480" y="160" width="140" height="30" as="geometry" />
        </mxCell>
        <mxCell id="9SYbQLJaygHpxM5evOQE-27" value="Service Request" style="text;html=1;strokeColor=none;fillColor=none;align=center;verticalAlign=middle;whiteSpace=wrap;rounded=0;fontSize=10;" vertex="1" parent="1">
          <mxGeometry x="620" y="175" width="80" height="20" as="geometry" />
        </mxCell>
        <mxCell id="9SYbQLJaygHpxM5evOQE-28" value="Service Response" style="text;html=1;strokeColor=none;fillColor=none;align=center;verticalAlign=middle;whiteSpace=wrap;rounded=0;fontSize=10;" vertex="1" parent="1">
          <mxGeometry x="420" y="210" width="90" height="20" as="geometry" />
        </mxCell>
        <mxCell id="9SYbQLJaygHpxM5evOQE-29" value="" style="endArrow=classic;html=1;rounded=0;strokeColor=#000000;strokeWidth=2;" edge="1" parent="1">
          <mxGeometry width="50" height="50" relative="1" as="geometry">
            <mxPoint x="420" y="400" as="sourcePoint" />
            <mxPoint x="700" y="400" as="targetPoint" />
          </mxGeometry>
        </mxCell>
        <mxCell id="9SYbQLJaygHpxM5evOQE-30" value="" style="endArrow=classic;html=1;rounded=0;strokeColor=#000000;strokeWidth=2;" edge="1" parent="1">
          <mxGeometry width="50" height="50" relative="1" as="geometry">
            <mxPoint x="700" y="410" as="sourcePoint" />
            <mxPoint x="420" y="410" as="targetPoint" />
          </mxGeometry>
        </mxCell>
        <mxCell id="9SYbQLJaygHpxM5evOQE-31" value="Action Result&lt;br style=&quot;font-size: 14px;&quot;&gt;(get_result Service)" style="text;html=1;strokeColor=none;fillColor=none;align=center;verticalAlign=middle;whiteSpace=wrap;rounded=0;fontSize=14;" vertex="1" parent="1">
          <mxGeometry x="480" y="360" width="140" height="30" as="geometry" />
        </mxCell>
        <mxCell id="9SYbQLJaygHpxM5evOQE-32" value="Service Request" style="text;html=1;strokeColor=none;fillColor=none;align=center;verticalAlign=middle;whiteSpace=wrap;rounded=0;fontSize=10;" vertex="1" parent="1">
          <mxGeometry x="620" y="375" width="80" height="20" as="geometry" />
        </mxCell>
        <mxCell id="9SYbQLJaygHpxM5evOQE-33" value="Service Response" style="text;html=1;strokeColor=none;fillColor=none;align=center;verticalAlign=middle;whiteSpace=wrap;rounded=0;fontSize=10;" vertex="1" parent="1">
          <mxGeometry x="420" y="410" width="90" height="20" as="geometry" />
        </mxCell>
        <mxCell id="9SYbQLJaygHpxM5evOQE-34" value="Action GoalStatus&lt;br style=&quot;font-size: 14px;&quot;&gt;(status Topic)" style="text;html=1;strokeColor=none;fillColor=none;align=center;verticalAlign=middle;whiteSpace=wrap;rounded=0;fontSize=14;" vertex="1" parent="1">
          <mxGeometry x="490" y="240" width="140" height="30" as="geometry" />
        </mxCell>
        <mxCell id="9SYbQLJaygHpxM5evOQE-35" value="" style="endArrow=classic;html=1;rounded=0;strokeColor=#000000;strokeWidth=2;" edge="1" parent="1">
          <mxGeometry width="50" height="50" relative="1" as="geometry">
            <mxPoint x="710" y="281" as="sourcePoint" />
            <mxPoint x="430" y="281" as="targetPoint" />
          </mxGeometry>
        </mxCell>
        <mxCell id="9SYbQLJaygHpxM5evOQE-36" value="" style="endArrow=classic;html=1;rounded=0;strokeColor=#000000;strokeWidth=2;" edge="1" parent="1">
          <mxGeometry width="50" height="50" relative="1" as="geometry">
            <mxPoint x="710" y="336" as="sourcePoint" />
            <mxPoint x="430" y="336" as="targetPoint" />
          </mxGeometry>
        </mxCell>
        <mxCell id="9SYbQLJaygHpxM5evOQE-37" value="Action Feedback&lt;br style=&quot;font-size: 14px;&quot;&gt;(feedback Topic)" style="text;html=1;strokeColor=none;fillColor=none;align=center;verticalAlign=middle;whiteSpace=wrap;rounded=0;fontSize=14;" vertex="1" parent="1">
          <mxGeometry x="490" y="300" width="140" height="30" as="geometry" />
        </mxCell>
      </root>
    </mxGraphModel>
  </diagram>
  <diagram id="bBBW4Ka2aPMQqDGffss4" name="16-ROS2_Parameter">
    <mxGraphModel dx="1335" dy="886" grid="1" gridSize="10" guides="1" tooltips="1" connect="1" arrows="1" fold="1" page="1" pageScale="1" pageWidth="1100" pageHeight="850" math="0" shadow="0">
      <root>
        <mxCell id="0" />
        <mxCell id="1" parent="0" />
        <mxCell id="n2ExUP1S7ARy94BcEAch-1" value="Node B" style="ellipse;whiteSpace=wrap;html=1;fontStyle=1;fontSize=32;strokeWidth=2;" vertex="1" parent="1">
          <mxGeometry x="80" y="360" width="280" height="240" as="geometry" />
        </mxCell>
        <mxCell id="n2ExUP1S7ARy94BcEAch-2" value="parameter&lt;br style=&quot;font-size: 18px;&quot;&gt;Client" style="rounded=1;whiteSpace=wrap;html=1;fontStyle=1;fontSize=18;fillColor=#f5f5f5;fontColor=#333333;strokeColor=#666666;" vertex="1" parent="1">
          <mxGeometry x="145" y="390" width="150" height="60" as="geometry" />
        </mxCell>
        <mxCell id="n2ExUP1S7ARy94BcEAch-3" value="parameter&lt;br style=&quot;font-size: 18px;&quot;&gt;Server" style="rounded=1;whiteSpace=wrap;html=1;fontStyle=1;fontSize=18;fillColor=#f5f5f5;fontColor=#333333;strokeColor=#666666;" vertex="1" parent="1">
          <mxGeometry x="145" y="510" width="150" height="60" as="geometry" />
        </mxCell>
        <mxCell id="n2ExUP1S7ARy94BcEAch-4" value="Node C" style="ellipse;whiteSpace=wrap;html=1;fontStyle=1;fontSize=32;strokeWidth=2;" vertex="1" parent="1">
          <mxGeometry x="760" y="360" width="280" height="240" as="geometry" />
        </mxCell>
        <mxCell id="n2ExUP1S7ARy94BcEAch-5" value="parameter&lt;br style=&quot;font-size: 18px;&quot;&gt;Client" style="rounded=1;whiteSpace=wrap;html=1;fontStyle=1;fontSize=18;fillColor=#f5f5f5;fontColor=#333333;strokeColor=#666666;" vertex="1" parent="1">
          <mxGeometry x="825" y="390" width="150" height="60" as="geometry" />
        </mxCell>
        <mxCell id="n2ExUP1S7ARy94BcEAch-6" value="parameter&lt;br style=&quot;font-size: 18px;&quot;&gt;Server" style="rounded=1;whiteSpace=wrap;html=1;fontStyle=1;fontSize=18;fillColor=#f5f5f5;fontColor=#333333;strokeColor=#666666;" vertex="1" parent="1">
          <mxGeometry x="825" y="510" width="150" height="60" as="geometry" />
        </mxCell>
        <mxCell id="n2ExUP1S7ARy94BcEAch-7" value="Node A" style="ellipse;whiteSpace=wrap;html=1;fontStyle=1;fontSize=32;strokeWidth=2;" vertex="1" parent="1">
          <mxGeometry x="420" y="190" width="280" height="240" as="geometry" />
        </mxCell>
        <mxCell id="n2ExUP1S7ARy94BcEAch-14" value="Get" style="edgeStyle=orthogonalEdgeStyle;rounded=0;orthogonalLoop=1;jettySize=auto;html=1;exitX=0;exitY=0.75;exitDx=0;exitDy=0;entryX=1;entryY=0.75;entryDx=0;entryDy=0;strokeWidth=4;fontSize=24;" edge="1" parent="1" source="n2ExUP1S7ARy94BcEAch-9" target="n2ExUP1S7ARy94BcEAch-2">
          <mxGeometry x="0.2078" y="32" relative="1" as="geometry">
            <mxPoint x="20" y="-7" as="offset" />
          </mxGeometry>
        </mxCell>
        <mxCell id="n2ExUP1S7ARy94BcEAch-9" value="parameter&lt;br style=&quot;font-size: 18px;&quot;&gt;Server" style="rounded=1;whiteSpace=wrap;html=1;fontStyle=1;fontSize=18;fillColor=#f5f5f5;fontColor=#333333;strokeColor=#666666;" vertex="1" parent="1">
          <mxGeometry x="485" y="340" width="150" height="60" as="geometry" />
        </mxCell>
        <mxCell id="n2ExUP1S7ARy94BcEAch-10" value="Set" style="edgeStyle=orthogonalEdgeStyle;rounded=0;orthogonalLoop=1;jettySize=auto;html=1;exitX=0.5;exitY=0;exitDx=0;exitDy=0;entryX=0;entryY=0.25;entryDx=0;entryDy=0;strokeWidth=4;fontSize=24;fontStyle=1" edge="1" parent="1" source="n2ExUP1S7ARy94BcEAch-2" target="n2ExUP1S7ARy94BcEAch-9">
          <mxGeometry x="-0.6339" y="25" relative="1" as="geometry">
            <mxPoint as="offset" />
          </mxGeometry>
        </mxCell>
        <mxCell id="n2ExUP1S7ARy94BcEAch-11" value="Get" style="edgeStyle=orthogonalEdgeStyle;rounded=0;orthogonalLoop=1;jettySize=auto;html=1;exitX=1;exitY=0.25;exitDx=0;exitDy=0;entryX=0.5;entryY=0;entryDx=0;entryDy=0;strokeWidth=4;fontSize=24;fontStyle=1" edge="1" parent="1" source="n2ExUP1S7ARy94BcEAch-9" target="n2ExUP1S7ARy94BcEAch-5">
          <mxGeometry x="0.7" y="25" relative="1" as="geometry">
            <mxPoint as="offset" />
          </mxGeometry>
        </mxCell>
        <mxCell id="n2ExUP1S7ARy94BcEAch-15" value="Set" style="endArrow=classic;html=1;rounded=0;entryX=0.25;entryY=1;entryDx=0;entryDy=0;strokeWidth=4;fontSize=24;fontStyle=1" edge="1" parent="1" target="n2ExUP1S7ARy94BcEAch-3">
          <mxGeometry x="-1" y="20" width="50" height="50" relative="1" as="geometry">
            <mxPoint x="183" y="670" as="sourcePoint" />
            <mxPoint x="180" y="640" as="targetPoint" />
            <mxPoint x="19" y="20" as="offset" />
          </mxGeometry>
        </mxCell>
        <mxCell id="n2ExUP1S7ARy94BcEAch-16" value="Get" style="endArrow=classic;html=1;rounded=0;exitX=0.75;exitY=1;exitDx=0;exitDy=0;strokeWidth=4;fontSize=24;fontStyle=1" edge="1" parent="1" source="n2ExUP1S7ARy94BcEAch-3">
          <mxGeometry x="1" y="-20" width="50" height="50" relative="1" as="geometry">
            <mxPoint x="330" y="710" as="sourcePoint" />
            <mxPoint x="258" y="670" as="targetPoint" />
            <mxPoint x="20" y="20" as="offset" />
          </mxGeometry>
        </mxCell>
        <mxCell id="n2ExUP1S7ARy94BcEAch-17" value="Set" style="endArrow=classic;html=1;rounded=0;entryX=0.25;entryY=1;entryDx=0;entryDy=0;strokeWidth=4;fontSize=24;fontStyle=1" edge="1" parent="1">
          <mxGeometry x="-1" y="20" width="50" height="50" relative="1" as="geometry">
            <mxPoint x="521.9100000000001" y="500" as="sourcePoint" />
            <mxPoint x="521.9100000000001" y="400" as="targetPoint" />
            <mxPoint x="19" y="20" as="offset" />
          </mxGeometry>
        </mxCell>
        <mxCell id="n2ExUP1S7ARy94BcEAch-18" value="Get" style="endArrow=classic;html=1;rounded=0;exitX=0.75;exitY=1;exitDx=0;exitDy=0;strokeWidth=4;fontSize=24;fontStyle=1" edge="1" parent="1">
          <mxGeometry x="1" y="-20" width="50" height="50" relative="1" as="geometry">
            <mxPoint x="596.9100000000001" y="400" as="sourcePoint" />
            <mxPoint x="596.9100000000001" y="500" as="targetPoint" />
            <mxPoint x="20" y="20" as="offset" />
          </mxGeometry>
        </mxCell>
        <mxCell id="n2ExUP1S7ARy94BcEAch-19" value="Set" style="endArrow=classic;html=1;rounded=0;entryX=0.25;entryY=1;entryDx=0;entryDy=0;strokeWidth=4;fontSize=24;fontStyle=1" edge="1" parent="1">
          <mxGeometry x="-1" y="20" width="50" height="50" relative="1" as="geometry">
            <mxPoint x="861.91" y="670" as="sourcePoint" />
            <mxPoint x="861.91" y="570" as="targetPoint" />
            <mxPoint x="19" y="20" as="offset" />
          </mxGeometry>
        </mxCell>
        <mxCell id="n2ExUP1S7ARy94BcEAch-20" value="Get" style="endArrow=classic;html=1;rounded=0;exitX=0.75;exitY=1;exitDx=0;exitDy=0;strokeWidth=4;fontSize=24;fontStyle=1" edge="1" parent="1">
          <mxGeometry x="1" y="-20" width="50" height="50" relative="1" as="geometry">
            <mxPoint x="936.91" y="570" as="sourcePoint" />
            <mxPoint x="936.91" y="670" as="targetPoint" />
            <mxPoint x="20" y="20" as="offset" />
          </mxGeometry>
        </mxCell>
      </root>
    </mxGraphModel>
  </diagram>
</mxfile>
